<svg xmlns="http://www.w3.org/2000/svg" viewBox="0 0 512 512" width="512" height="512">
  <defs>
    <linearGradient id="sky" x1="0" y1="0" x2="0" y2="1">
      <stop offset="0" stop-color="#f6c27a"/>
      <stop offset="0.45" stop-color="#ee9a59"/>
      <stop offset="1" stop-color="#c7693f"/>
    </linearGradient>
    <linearGradient id="water" x1="0" y1="0" x2="0" y2="1">
      <stop offset="0" stop-color="#2a93a6"/>
      <stop offset="1" stop-color="#0a3a44"/>
    </linearGradient>
  </defs>
  <rect width="512" height="512" fill="url(#sky)"/>
  <!-- content kept within central safe zone -->
  <g transform="translate(256 256) scale(0.78) translate(-256 -256)">
    <circle cx="256" cy="172" r="60" fill="#fff0cf"/>
    <rect x="0" y="312" width="512" height="200" fill="url(#water)"/>
    <g fill="#244a32">
      <path d="M96 300 l30 -70 l30 70 Z"/>
      <path d="M102 270 l24 -56 l24 56 Z"/>
    </g>
    <g>
      <rect x="300" y="232" width="120" height="78" fill="#6b4326"/>
      <path d="M290 234 L360 188 L430 234 Z" fill="#8a3a26"/>
      <rect x="346" y="262" width="34" height="48" fill="#3a2415"/>
      <rect x="392" y="252" width="22" height="22" fill="#ffd98a"/>
      <rect x="312" y="252" width="22" height="22" fill="#ffd98a"/>
    </g>
    <path d="M150 420 q90 40 210 0 q-95 26 -210 0 Z" fill="#caa15e"/>
  </g>
</svg>
